<svg version="1.1" xmlns="http://www.w3.org/2000/svg" xmlns:xlink="http://www.w3.org/1999/xlink" width="908" height="876"><defs/><g><g transform="translate(-22,-2166) scale(1,1)"><path fill="none" stroke="#000000" d="M 180 2272 A 18 18 0 0 1 180 2308" stroke-miterlimit="10"/></g><g transform="translate(-22,-2166) scale(1,1)"><path fill="none" stroke="#000000" d="M 120 2333 L 240.28076171875 2333" stroke-miterlimit="10"/></g><g transform="translate(-22,-2166) scale(1,1)"><g><path fill="none" stroke="none"/><text fill="#000000" stroke="none" font-family="Arial" font-size="13px" font-style="normal" font-weight="bold" text-decoration="none" x="128.1181640625" y="2327.5">ObserverInterface</text></g></g><g transform="translate(-22,-2166) scale(1,1)"><path fill="none" stroke="#000000" d="M 455 2300 A 18 18 0 0 1 455 2264" stroke-miterlimit="10"/></g><g transform="translate(-22,-2166) scale(1,1)"><path fill="none" stroke="#000000" d="M 400 2325 L 510.1435546875 2325" stroke-miterlimit="10"/></g><g transform="translate(-22,-2166) scale(1,1)"><g><path fill="none" stroke="none"/><text fill="#000000" stroke="none" font-family="Arial" font-size="13px" font-style="normal" font-weight="bold" text-decoration="none" x="408.09912109375" y="2319.5">SubjectInterface</text></g></g><g transform="translate(-22,-2166) scale(1,1)"><rect fill="#C0C0C0" stroke="none" x="399" y="2383" width="248" height="112" opacity="0.2"/></g><g transform="translate(-22,-2166) scale(1,1)"><rect fill="#ffffff" stroke="none" x="392" y="2376" width="248" height="112"/></g><g transform="translate(-22,-2166) scale(1,1)"><path fill="none" stroke="#000000" d="M 392 2376 L 640 2376 L 640 2488 L 392 2488 L 392 2376 Z Z" stroke-miterlimit="10"/></g><g transform="translate(-22,-2166) scale(1,1)"><path fill="none" stroke="#000000" d="M 392 2401 L 640 2401" stroke-miterlimit="10"/></g><g transform="translate(-22,-2166) scale(1,1)"><path fill="none" stroke="#000000" d="M 392 2424 L 640 2424" stroke-miterlimit="10"/></g><g transform="translate(-22,-2166) scale(1,1)"><g><path fill="none" stroke="none"/><text fill="#000000" stroke="none" font-family="Arial" font-size="13px" font-style="normal" font-weight="bold" text-decoration="none" x="470.477783203125" y="2395.5">AbstractSubject</text></g></g><g transform="translate(-22,-2166) scale(1,1)"><g><path fill="none" stroke="none"/><text fill="#000000" stroke="none" font-family="Arial" font-size="13px" font-style="normal" font-weight="normal" text-decoration="none" x="397" y="2418.5">#observer: Array</text></g></g><g transform="translate(-22,-2166) scale(1,1)"><g><path fill="none" stroke="none"/><text fill="#000000" stroke="none" font-family="Arial" font-size="13px" font-style="normal" font-weight="normal" text-decoration="none" x="397" y="2441.5">+register(observer: Observer)</text></g></g><g transform="translate(-22,-2166) scale(1,1)"><g><path fill="none" stroke="none"/><text fill="#000000" stroke="none" font-family="Arial" font-size="13px" font-style="normal" font-weight="normal" text-decoration="none" x="397" y="2456.5">+unregister(observer: Observer)</text></g></g><g transform="translate(-22,-2166) scale(1,1)"><g><path fill="none" stroke="none"/><text fill="#000000" stroke="none" font-family="Arial" font-size="13px" font-style="normal" font-weight="normal" text-decoration="none" x="397" y="2471.5">+notify()</text></g></g><g transform="translate(-22,-2166) scale(1,1)"><rect fill="#C0C0C0" stroke="none" x="95" y="2383" width="226.919921875" height="104" opacity="0.2"/></g><g transform="translate(-22,-2166) scale(1,1)"><rect fill="#ffffff" stroke="none" x="88" y="2376" width="226.919921875" height="104"/></g><g transform="translate(-22,-2166) scale(1,1)"><path fill="none" stroke="#000000" d="M 88 2376 L 314.919921875 2376 L 314.919921875 2480 L 88 2480 L 88 2376 Z Z" stroke-miterlimit="10"/></g><g transform="translate(-22,-2166) scale(1,1)"><path fill="none" stroke="#000000" d="M 88 2401 L 314.919921875 2401" stroke-miterlimit="10"/></g><g transform="translate(-22,-2166) scale(1,1)"><path fill="none" stroke="#000000" d="M 88 2411 L 314.919921875 2411" stroke-miterlimit="10"/></g><g transform="translate(-22,-2166) scale(1,1)"><g><path fill="none" stroke="none"/><text fill="#000000" stroke="none" font-family="Arial" font-size="13px" font-style="normal" font-weight="bold" text-decoration="none" x="162.075927734375" y="2395.5">PackageView</text></g></g><g transform="translate(-22,-2166) scale(1,1)"><g><path fill="none" stroke="none"/><text fill="#000000" stroke="none" font-family="Arial" font-size="13px" font-style="normal" font-weight="normal" text-decoration="none" x="93" y="2428.5">+update(subject: Subject)</text></g></g><g transform="translate(-22,-2166) scale(1,1)"><g><path fill="none" stroke="none"/><text fill="#000000" stroke="none" font-family="Arial" font-size="13px" font-style="normal" font-weight="normal" text-decoration="none" x="93" y="2443.5">+&lt;&lt;create&gt;&gt;()</text></g></g><g transform="translate(-22,-2166) scale(1,1)"><g><path fill="none" stroke="none"/><text fill="#000000" stroke="none" font-family="Arial" font-size="13px" font-style="normal" font-weight="normal" text-decoration="none" x="93" y="2458.5">+render(): string</text></g></g><g transform="translate(-22,-2166) scale(1,1)"><rect fill="#C0C0C0" stroke="none" x="39" y="2623" width="339.5986328125" height="136" opacity="0.2"/></g><g transform="translate(-22,-2166) scale(1,1)"><rect fill="#ffffff" stroke="none" x="32" y="2616" width="339.5986328125" height="136"/></g><g transform="translate(-22,-2166) scale(1,1)"><path fill="none" stroke="#000000" d="M 32 2616 L 371.5986328125 2616 L 371.5986328125 2752 L 32 2752 L 32 2616 Z Z" stroke-miterlimit="10"/></g><g transform="translate(-22,-2166) scale(1,1)"><path fill="none" stroke="#000000" d="M 32 2641 L 371.5986328125 2641" stroke-miterlimit="10"/></g><g transform="translate(-22,-2166) scale(1,1)"><path fill="none" stroke="#000000" d="M 32 2679 L 371.5986328125 2679" stroke-miterlimit="10"/></g><g transform="translate(-22,-2166) scale(1,1)"><g><path fill="none" stroke="none"/><text fill="#000000" stroke="none" font-family="Arial" font-size="13px" font-style="normal" font-weight="bold" text-decoration="none" x="148.32666015625" y="2635.5">PackageController</text></g></g><g transform="translate(-22,-2166) scale(1,1)"><g><path fill="none" stroke="none"/><text fill="#000000" stroke="none" font-family="Arial" font-size="13px" font-style="normal" font-weight="normal" text-decoration="none" x="37" y="2658.5">-model: Model</text></g></g><g transform="translate(-22,-2166) scale(1,1)"><g><path fill="none" stroke="none"/><text fill="#000000" stroke="none" font-family="Arial" font-size="13px" font-style="normal" font-weight="normal" text-decoration="none" x="37" y="2673.5">-view: PackageView</text></g></g><g transform="translate(-22,-2166) scale(1,1)"><g><path fill="none" stroke="none"/><text fill="#000000" stroke="none" font-family="Arial" font-size="13px" font-style="normal" font-weight="normal" text-decoration="none" x="37" y="2696.5">+&lt;&lt;create&gt;&gt;(model: PackageModel, view: PackageView)</text></g></g><g transform="translate(-22,-2166) scale(1,1)"><g><path fill="none" stroke="none"/><text fill="#000000" stroke="none" font-family="Arial" font-size="13px" font-style="normal" font-weight="normal" text-decoration="none" x="37" y="2711.5">+execute(): string</text></g></g><g transform="translate(-22,-2166) scale(1,1)"><g><path fill="none" stroke="none"/><text fill="#000000" stroke="none" font-family="Arial" font-size="13px" font-style="normal" font-weight="normal" text-decoration="none" x="37" y="2726.5">+isPackage(): bool</text></g></g><g transform="translate(-22,-2166) scale(1,1)"><rect fill="#C0C0C0" stroke="none" x="479" y="2631" width="448" height="408" opacity="0.2"/></g><g transform="translate(-22,-2166) scale(1,1)"><rect fill="#ffffff" stroke="none" x="472" y="2624" width="448" height="408"/></g><g transform="translate(-22,-2166) scale(1,1)"><path fill="none" stroke="#000000" d="M 472 2624 L 920 2624 L 920 3032 L 472 3032 L 472 2624 Z Z" stroke-miterlimit="10"/></g><g transform="translate(-22,-2166) scale(1,1)"><path fill="none" stroke="#000000" d="M 472 2649 L 920 2649" stroke-miterlimit="10"/></g><g transform="translate(-22,-2166) scale(1,1)"><path fill="none" stroke="#000000" d="M 472 2852 L 920 2852" stroke-miterlimit="10"/></g><g transform="translate(-22,-2166) scale(1,1)"><g><path fill="none" stroke="none"/><text fill="#000000" stroke="none" font-family="Arial" font-size="13px" font-style="normal" font-weight="bold" text-decoration="none" x="653.0009765625" y="2643.5">PackageModel</text></g></g><g transform="translate(-22,-2166) scale(1,1)"><g><path fill="none" stroke="none"/><text fill="#000000" stroke="none" font-family="Arial" font-size="13px" font-style="normal" font-weight="normal" text-decoration="none" x="477" y="2666.5">+package: string</text></g></g><g transform="translate(-22,-2166) scale(1,1)"><g><path fill="none" stroke="none"/><text fill="#000000" stroke="none" font-family="Arial" font-size="13px" font-style="normal" font-weight="normal" text-decoration="none" x="477" y="2681.5">+language: string</text></g></g><g transform="translate(-22,-2166) scale(1,1)"><g><path fill="none" stroke="none"/><text fill="#000000" stroke="none" font-family="Arial" font-size="13px" font-style="normal" font-weight="normal" text-decoration="none" x="477" y="2696.5">+version: array</text></g></g><g transform="translate(-22,-2166) scale(1,1)"><g><path fill="none" stroke="none"/><text fill="#000000" stroke="none" font-family="Arial" font-size="13px" font-style="normal" font-weight="normal" text-decoration="none" x="477" y="2711.5">+keywords: array</text></g></g><g transform="translate(-22,-2166) scale(1,1)"><g><path fill="none" stroke="none"/><text fill="#000000" stroke="none" font-family="Arial" font-size="13px" font-style="normal" font-weight="normal" text-decoration="none" x="477" y="2726.5">+distribuable: false</text></g></g><g transform="translate(-22,-2166) scale(1,1)"><g><path fill="none" stroke="none"/><text fill="#000000" stroke="none" font-family="Arial" font-size="13px" font-style="normal" font-weight="normal" text-decoration="none" x="477" y="2741.5">+description: string</text></g></g><g transform="translate(-22,-2166) scale(1,1)"><g><path fill="none" stroke="none"/><text fill="#000000" stroke="none" font-family="Arial" font-size="13px" font-style="normal" font-weight="normal" text-decoration="none" x="477" y="2756.5">+name: string</text></g></g><g transform="translate(-22,-2166) scale(1,1)"><g><path fill="none" stroke="none"/><text fill="#000000" stroke="none" font-family="Arial" font-size="13px" font-style="normal" font-weight="normal" text-decoration="none" x="477" y="2771.5">+license: string</text></g></g><g transform="translate(-22,-2166) scale(1,1)"><g><path fill="none" stroke="none"/><text fill="#000000" stroke="none" font-family="Arial" font-size="13px" font-style="normal" font-weight="normal" text-decoration="none" x="477" y="2786.5">+homepage: string</text></g></g><g transform="translate(-22,-2166) scale(1,1)"><g><path fill="none" stroke="none"/><text fill="#000000" stroke="none" font-family="Arial" font-size="13px" font-style="normal" font-weight="normal" text-decoration="none" x="477" y="2801.5">+author: string</text></g></g><g transform="translate(-22,-2166) scale(1,1)"><g><path fill="none" stroke="none"/><text fill="#000000" stroke="none" font-family="Arial" font-size="13px" font-style="normal" font-weight="normal" text-decoration="none" x="477" y="2816.5">+require: array</text></g></g><g transform="translate(-22,-2166) scale(1,1)"><g><path fill="none" stroke="none"/><text fill="#000000" stroke="none" font-family="Arial" font-size="13px" font-style="normal" font-weight="normal" text-decoration="none" x="477" y="2831.5">+require_dev: array</text></g></g><g transform="translate(-22,-2166) scale(1,1)"><g><path fill="none" stroke="none"/><text fill="#000000" stroke="none" font-family="Arial" font-size="13px" font-style="normal" font-weight="normal" text-decoration="none" x="477" y="2846.5">+authors: array</text></g></g><g transform="translate(-22,-2166) scale(1,1)"><g><path fill="none" stroke="none"/><text fill="#000000" stroke="none" font-family="Arial" font-size="13px" font-style="normal" font-weight="normal" text-decoration="none" x="477" y="2869.5">+&lt;&lt;create&gt;&gt;()</text></g></g><g transform="translate(-22,-2166) scale(1,1)"><g><path fill="none" stroke="none"/><text fill="#000000" stroke="none" font-family="Arial" font-size="13px" font-style="normal" font-weight="normal" text-decoration="none" x="477" y="2884.5">+consume(url: string, subdir: string, ping: bool = false): stringbool</text></g></g><g transform="translate(-22,-2166) scale(1,1)"><g><path fill="none" stroke="none"/><text fill="#000000" stroke="none" font-family="Arial" font-size="13px" font-style="normal" font-weight="normal" text-decoration="none" x="477" y="2899.5">+consumeComposer()</text></g></g><g transform="translate(-22,-2166) scale(1,1)"><g><path fill="none" stroke="none"/><text fill="#000000" stroke="none" font-family="Arial" font-size="13px" font-style="normal" font-weight="normal" text-decoration="none" x="477" y="2914.5">+consumeNpm()</text></g></g><g transform="translate(-22,-2166) scale(1,1)"><g><path fill="none" stroke="none"/><text fill="#000000" stroke="none" font-family="Arial" font-size="13px" font-style="normal" font-weight="normal" text-decoration="none" x="477" y="2929.5">+consumePackage()</text></g></g><g transform="translate(-22,-2166) scale(1,1)"><g><path fill="none" stroke="none"/><text fill="#000000" stroke="none" font-family="Arial" font-size="13px" font-style="normal" font-weight="normal" text-decoration="none" x="477" y="2944.5">+consumePackagist()</text></g></g><g transform="translate(-22,-2166) scale(1,1)"><g><path fill="none" stroke="none"/><text fill="#000000" stroke="none" font-family="Arial" font-size="13px" font-style="normal" font-weight="normal" text-decoration="none" x="477" y="2959.5">+consumeTravis()</text></g></g><g transform="translate(-22,-2166) scale(1,1)"><g><path fill="none" stroke="none"/><text fill="#000000" stroke="none" font-family="Arial" font-size="13px" font-style="normal" font-weight="normal" text-decoration="none" x="477" y="2974.5">+get()</text></g></g><g transform="translate(-22,-2166) scale(1,1)"><g><path fill="none" stroke="none"/><text fill="#000000" stroke="none" font-family="Arial" font-size="13px" font-style="normal" font-weight="normal" text-decoration="none" x="477" y="2989.5">+jsonSerialize(): string</text></g></g><g transform="translate(-22,-2166) scale(1,1)"><g><path fill="none" stroke="none"/><text fill="#000000" stroke="none" font-family="Arial" font-size="13px" font-style="normal" font-weight="normal" text-decoration="none" x="477" y="3004.5">+setAvaible(avaible: stdClass)</text></g></g><g transform="translate(-22,-2166) scale(1,1)"><g><path fill="none" stroke="none"/><text fill="#000000" stroke="none" font-family="Arial" font-size="13px" font-style="normal" font-weight="normal" text-decoration="none" x="477" y="3019.5">+setPackage(vendor: string, repository: string)</text></g></g><g transform="translate(-22,-2166) scale(1,1)"><path fill="none" stroke="#000000" d="M 201 2481 L 201 2615" stroke-miterlimit="10"/></g><g transform="translate(-22,-2166) scale(1,1)"><path fill="#000000" stroke="none" d="M 196.790482243984 2604.837325142376 L 201 2615 L 205.209517756016 2604.837325142376 L 201 2593"/></g><g transform="translate(-22,-2166) scale(1,1)"><path fill="none" stroke="#000000" d="M 196.790482243984 2604.837325142376 L 201 2615 L 205.209517756016 2604.837325142376 L 201 2593 L 196.790482243984 2604.837325142376" stroke-miterlimit="10"/></g><g transform="translate(-22,-2166) scale(1,1)"><path fill="none" stroke="#000000" d="M 603 2623 L 542 2489" stroke-miterlimit="10"/></g><g transform="translate(-22,-2166) scale(1,1)"><path fill="#FFFFFF" stroke="none" d="M 558.0835374920931 2504.0106569390027 L 542 2489 L 542.7586411144933 2510.986915737761"/></g><g transform="translate(-22,-2166) scale(1,1)"><path fill="none" stroke="#000000" d="M 558.0835374920931 2504.0106569390027 L 542 2489 L 542.7586411144933 2510.986915737761 L 558.0835374920931 2504.0106569390027" stroke-miterlimit="10"/></g><g transform="translate(-22,-2166) scale(1,1)"><path fill="none" stroke="#000000" d="M 471 2763 L 373 2734" stroke-miterlimit="10"/></g><g transform="translate(-22,-2166) scale(1,1)"><path fill="#000000" stroke="none" d="M 383.9394284525542 2732.847218523983 L 373 2734 L 381.550483640024 2740.920204442188 L 394.0957288333911 2740.2426136343706"/></g><g transform="translate(-22,-2166) scale(1,1)"><path fill="none" stroke="#000000" d="M 383.9394284525542 2732.847218523983 L 373 2734 L 381.550483640024 2740.920204442188 L 394.0957288333911 2740.2426136343706 L 383.9394284525542 2732.847218523983" stroke-miterlimit="10"/></g><g transform="translate(-22,-2166) scale(1,1)"><path fill="none" stroke="#000000" d="M 696 2624 L 696 2536 L 664 2536 L 664 2307 L 510 2307" stroke-miterlimit="10"/></g><g transform="translate(-22,-2166) scale(1,1)"><path fill="none" stroke="#000000" d="M 176 2343 L 176 2376" stroke-miterlimit="10"/></g><g transform="translate(-22,-2166) scale(1,1)"><path fill="none" stroke="#000000" d="M 232 2480 L 232 2584 L 496 2584 L 496 2624" stroke-miterlimit="10"/></g><g transform="translate(-22,-2166) scale(1,1)"><path fill="#FFFFFF" stroke="none" d="M 491.790482243984 2613.837325142376 L 496 2624 L 500.209517756016 2613.837325142376 L 496 2602"/></g><g transform="translate(-22,-2166) scale(1,1)"><path fill="none" stroke="#000000" d="M 491.790482243984 2613.837325142376 L 496 2624 L 500.209517756016 2613.837325142376 L 496 2602 L 491.790482243984 2613.837325142376" stroke-miterlimit="10"/></g><g transform="translate(-22,-2166) scale(1,1)"><path fill="#ffffff" stroke="none" d="M 544 2176 L 757 2176 L 767 2186 L 767 2244 L 544 2244 L 544 2176"/></g><g transform="translate(-22,-2166) scale(1,1)"><path fill="none" stroke="#000000" d="M 544 2176 L 757 2176 L 767 2186 L 767 2244 L 544 2244 L 544 2176 L 544 2176" stroke-miterlimit="10"/></g><g transform="translate(-22,-2166) scale(1,1)"><path fill="none" stroke="#000000" d="M 757 2176 L 757 2186 L 767 2186 L 757 2176" stroke-miterlimit="10"/></g><g transform="translate(-22,-2166) scale(1,1)"><g><path fill="none" stroke="none"/><text fill="#000000" stroke="none" font-family="Arial" font-size="13px" font-style="normal" font-weight="normal" text-decoration="none" x="549" y="2194">Notify</text></g></g><g transform="translate(-22,-2166) scale(1,1)"><g><path fill="none" stroke="none"/><text fill="#000000" stroke="none" font-family="Arial" font-size="13px" font-style="normal" font-weight="normal" text-decoration="none" x="549" y="2209">Foreach(observer as observer) {</text></g></g><g transform="translate(-22,-2166) scale(1,1)"><g><path fill="none" stroke="none"/><text fill="#000000" stroke="none" font-family="Arial" font-size="13px" font-style="normal" font-weight="normal" text-decoration="none" x="549" y="2224">  observer?update(this);</text></g></g><g transform="translate(-22,-2166) scale(1,1)"><g><path fill="none" stroke="none"/><text fill="#000000" stroke="none" font-family="Arial" font-size="13px" font-style="normal" font-weight="normal" text-decoration="none" x="549" y="2239">}</text></g></g><g transform="translate(-22,-2166) scale(1,1)"><path fill="none" stroke="#000000" d="M 575 2246 L 511 2274" stroke-miterlimit="10" stroke-dasharray="3"/></g><g transform="translate(-22,-2166) scale(1,1)"><path fill="none" stroke="#000000" d="M 400 2290 L 198.140380859375 2290" stroke-miterlimit="10"/></g><g transform="translate(-22,-2166) scale(1,1)"><path fill="none" stroke="#000000" d="M 240 2282 L 437.07177734375 2282" stroke-miterlimit="10"/></g><g transform="translate(-22,-2166) scale(1,1)"><path fill="#ffffff" stroke="none" d="M 160 2287 C 160 2278.1634432 167.1634432 2271 176 2271 C 184.8365568 2271 192 2278.1634432 192 2287 C 192 2295.8365568 184.8365568 2303 176 2303 C 167.1634432 2303 160 2295.8365568 160 2287 Z"/></g><g transform="translate(-22,-2166) scale(1,1)"><path fill="none" stroke="#000000" d="M 160 2287 C 160 2278.1634432 167.1634432 2271 176 2271 C 184.8365568 2271 192 2278.1634432 192 2287 C 192 2295.8365568 184.8365568 2303 176 2303 C 167.1634432 2303 160 2295.8365568 160 2287 Z" stroke-miterlimit="10"/></g><g transform="translate(-22,-2166) scale(1,1)"><path fill="#ffffff" stroke="none" d="M 440 2280 C 440 2271.1634432 447.1634432 2264 456 2264 C 464.8365568 2264 472 2271.1634432 472 2280 C 472 2288.8365568 464.8365568 2296 456 2296 C 447.1634432 2296 440 2288.8365568 440 2280 Z"/></g><g transform="translate(-22,-2166) scale(1,1)"><path fill="none" stroke="#000000" d="M 440 2280 C 440 2271.1634432 447.1634432 2264 456 2264 C 464.8365568 2264 472 2271.1634432 472 2280 C 472 2288.8365568 464.8365568 2296 456 2296 C 447.1634432 2296 440 2288.8365568 440 2280 Z" stroke-miterlimit="10"/></g><g transform="translate(-22,-2166) scale(1,1)"><path fill="#C0C0C0" stroke="none" d="M 752.252197265625 2282.5 C 752.252197265625 2276.1487248 757.400922065625 2271 763.752197265625 2271 C 770.103472465625 2271 775.252197265625 2276.1487248 775.252197265625 2282.5 C 775.252197265625 2288.8512752 770.103472465625 2294 763.752197265625 2294 C 757.400922065625 2294 752.252197265625 2288.8512752 752.252197265625 2282.5 Z" opacity="0.2"/></g><g transform="translate(-22,-2166) scale(1,1)"><path fill="#ffffff" stroke="none" d="M 745.252197265625 2275.5 C 745.252197265625 2269.1487248 750.400922065625 2264 756.752197265625 2264 C 763.103472465625 2264 768.252197265625 2269.1487248 768.252197265625 2275.5 C 768.252197265625 2281.8512752 763.103472465625 2287 756.752197265625 2287 C 750.400922065625 2287 745.252197265625 2281.8512752 745.252197265625 2275.5 Z"/></g><g transform="translate(-22,-2166) scale(1,1)"><path fill="none" stroke="#000000" d="M 745.252197265625 2275.5 C 745.252197265625 2269.1487248 750.400922065625 2264 756.752197265625 2264 C 763.103472465625 2264 768.252197265625 2269.1487248 768.252197265625 2275.5 C 768.252197265625 2281.8512752 763.103472465625 2287 756.752197265625 2287 C 750.400922065625 2287 745.252197265625 2281.8512752 745.252197265625 2275.5 Z" stroke-miterlimit="10"/></g><g transform="translate(-22,-2166) scale(1,1)"><g><path fill="none" stroke="none"/><text fill="#000000" stroke="none" font-family="Arial" font-size="13px" font-style="normal" font-weight="bold" text-decoration="none" x="688.4609375" y="2306.5">PackageModelInterface</text></g></g><g transform="translate(-22,-2166) scale(1,1)"><path fill="none" stroke="#000000" d="M 719 2623 L 753 2313" stroke-miterlimit="10"/></g></g></svg>